# xmcd
#
# Track frame offsets: 
#        150
#        21639
#        41908
#        55600
#        74280
#        91538
#        115592
#        137042
#        150614
#        176040
#        197479
#
# Disc length: 2947 seconds
#
# Revision: 0
# Processed by: cddbd v1.5.2PL0 Copyright (c) Steve Scherf et al.
# Submitted via: ExactAudioCopy v0.99pb4
#
DISCID=8e0b810b
DTITLE=The Radio Kings - The Radio Kings
DYEAR=2009
DGENRE=Blues
TTITLE0=Can't Keep A Good Man Down
TTITLE1=Donna
TTITLE2=She Belongs To Me
TTITLE3=Watch The Trains Roll By
TTITLE4=The Moanin' Blues
TTITLE5=Everything's Gonna Be All Right
TTITLE6=Pallet On The Floor
TTITLE7=Evil Love
TTITLE8=I'm Not Trippin'
TTITLE9=You Got To Dir
TTITLE10=You're Gonna Make Me Cry
EXTD=
EXTT0=
EXTT1=
EXTT2=
EXTT3=
EXTT4=
EXTT5=
EXTT6=
EXTT7=
EXTT8=
EXTT9=
EXTT10=
PLAYORDER=
